HIERARCHY
ROOT Hips
{
	OFFSET 0.000000 0.000000 0.000000
	CHANNELS 6 Xposition Yposition Zposition Zrotation Yrotation Xrotation 
	JOINT LHipJoint
	{
		OFFSET 0.000000 0.000000 0.000000
		CHANNELS 3 Zrotation Yrotation Xrotation
		JOINT LeftUpLeg
		{
			OFFSET 1.363060 -1.794630 0.839290
			CHANNELS 3 Zrotation Yrotation Xrotation
			JOINT LeftLeg
			{
				OFFSET 2.448110 -6.726130 0.000000
				CHANNELS 3 Zrotation Yrotation Xrotation
				JOINT LeftFoot
				{
					OFFSET 2.562200 -7.039590 0.000000
					CHANNELS 3 Zrotation Yrotation Xrotation
					JOINT LeftToeBase
					{
						OFFSET 0.157640 -0.433110 2.322550
						CHANNELS 3 Zrotation Yrotation Xrotation
						End Site
						{
							OFFSET 0.000000 0.000000 0.000000
						}
					}
				}
			}
		}
	}
	JOINT RHipJoint
	{
		OFFSET 0.000000 0.000000 0.000000
		CHANNELS 3 Zrotation Yrotation Xrotation
		JOINT RightUpLeg
		{
			OFFSET -1.305520 -1.794630 0.839290
			CHANNELS 3 Zrotation Yrotation Xrotation
			JOINT RightLeg
			{
				OFFSET -2.542530 -6.985550 0.000000
				CHANNELS 3 Zrotation Yrotation Xrotation
				JOINT RightFoot
				{
					OFFSET -2.568260 -7.056230 0.000000
					CHANNELS 3 Zrotation Yrotation Xrotation
					JOINT RightToeBase
					{
						OFFSET -0.164730 -0.452590 2.363150
						CHANNELS 3 Zrotation Yrotation Xrotation
						End Site
						{
							OFFSET 0.000000 0.000000 0.000000
						}
					}
				}
			}
		}
	}
	JOINT LowerBack
	{
		OFFSET 0.000000 0.000000 0.000000
		CHANNELS 3 Zrotation Yrotation Xrotation
		JOINT Spine
		{
			OFFSET 0.028270 2.035590 -0.193380
			CHANNELS 3 Zrotation Yrotation Xrotation
			JOINT Spine1
			{
				OFFSET 0.056720 2.048850 -0.042750
				CHANNELS 3 Zrotation Yrotation Xrotation
				JOINT Neck
				{
					OFFSET 0.000000 0.000000 0.000000
					CHANNELS 3 Zrotation Yrotation Xrotation
					JOINT Neck1
					{
						OFFSET -0.054170 1.746240 0.172020
						CHANNELS 3 Zrotation Yrotation Xrotation
						JOINT Head
						{
							OFFSET 0.104070 1.761360 -0.123970
							CHANNELS 3 Zrotation Yrotation Xrotation
							End Site
							{
								OFFSET 0.000000 0.000000 0.000000
							}
						}
					}
				}
				JOINT LeftShoulder
				{
					OFFSET 0.000000 0.000000 0.000000
					CHANNELS 3 Zrotation Yrotation Xrotation
					JOINT LeftArm
					{
						OFFSET 3.362410 1.200890 -0.311210
						CHANNELS 3 Zrotation Yrotation Xrotation
						JOINT LeftForeArm
						{
							OFFSET 4.983000 -0.000000 -0.000000
							CHANNELS 3 Zrotation Yrotation Xrotation
							JOINT LeftHand
							{
								OFFSET 3.483560 -0.000000 -0.000000
								CHANNELS 3 Zrotation Yrotation Xrotation
								JOINT LeftFingerBase
								{
									OFFSET 0.000000 0.000000 0.000000
									CHANNELS 3 Zrotation Yrotation Xrotation
									JOINT LeftHandIndex1
									{
										OFFSET 0.715260 -0.000000 -0.000000
										CHANNELS 3 Zrotation Yrotation Xrotation
										End Site
										{
											OFFSET 0.000000 0.000000 0.000000
										}
									}
								}
								JOINT LThumb
								{
									OFFSET 0.000000 0.000000 0.000000
									CHANNELS 3 Zrotation Yrotation Xrotation
									End Site
									{
										OFFSET 0.000000 0.000000 0.000000
									}
								}
							}
						}
					}
				}
				JOINT RightShoulder
				{
					OFFSET 0.000000 0.000000 0.000000
					CHANNELS 3 Zrotation Yrotation Xrotation
					JOINT RightArm
					{
						OFFSET -3.136600 1.374050 -0.404650
						CHANNELS 3 Zrotation Yrotation Xrotation
						JOINT RightForeArm
						{
							OFFSET -5.241900 -0.000000 -0.000000
							CHANNELS 3 Zrotation Yrotation Xrotation
							JOINT RightHand
							{
								OFFSET -3.444170 -0.000000 -0.000000
								CHANNELS 3 Zrotation Yrotation Xrotation
								JOINT RightFingerBase
								{
									OFFSET 0.000000 0.000000 0.000000
									CHANNELS 3 Zrotation Yrotation Xrotation
									JOINT RightHandIndex1
									{
										OFFSET -0.622530 -0.000000 -0.000000
										CHANNELS 3 Zrotation Yrotation Xrotation
										End Site
										{
											OFFSET 0.000000 0.000000 0.000000
										}
									}
								}
								JOINT RThumb
								{
									OFFSET 0.000000 0.000000 0.000000
									CHANNELS 3 Zrotation Yrotation Xrotation
									End Site
									{
										OFFSET 0.000000 0.000000 0.000000
									}
								}
							}
						}
					}
				}
			}
		}
	}
}
MOTION
Frames: 9
Frame Time: 0.008333
2.971441 15.707164 -0.751049 29.279182 -26.325488 -38.835040 130.778003 -83.296283 -68.580323 -44.263291 -23.051638 110.112577 12.261576 62.781424 -69.495260 54.233894 -25.022004 -174.958560 0.000000 0.000000 0.000000 -5.608717 -4.712110 8.071345 -30.818203 -17.515695 5.651209 41.912031 -29.717902 11.720578 9.233984 -6.666906 -35.046215 0.000000 0.000000 0.000000 5.107205 -0.170189 -6.229399 -0.481157 -1.504457 -1.027046 -17.302545 2.428123 -4.940537 1.360598 0.777487 3.003888 0.000000 0.000000 0.000000 0.000000 0.000000 0.000000 2.028809 -12.704286 18.098042 -48.992024 -17.577806 -0.879334 24.570415 -15.580135 -0.000000 0.000000 0.000000 0.000000 0.000000 0.000000 0.000000 0.000000 0.000000 0.000000 0.000000 0.000000 0.000000 -17.915736 -4.326120 -30.322477 134.537648 16.274239 44.911503 162.052866 76.843797 -0.000000 0.000000 0.000000 0.000000 0.000000 0.000000 0.000000 0.000000 0.000000 0.000000 0.000000 0.000000 0.000000 
2.970419 15.707683 -0.715428 30.002527 -27.228958 -38.788935 131.509609 -83.592795 -69.516445 -45.731889 -20.669458 110.183944 15.340000 62.613118 -65.764300 51.530127 -28.105235 -178.337862 0.000000 0.000000 0.000000 -5.572861 -4.066058 7.494320 -30.968595 -17.384165 5.631290 41.952214 -29.689277 11.732080 9.222549 -6.691052 -34.969612 0.000000 0.000000 0.000000 5.185703 0.040448 -6.629960 -0.441752 -1.180013 -0.988672 -17.234559 2.590352 -4.991274 1.328919 0.857269 2.970481 0.000000 0.000000 0.000000 0.000000 0.000000 0.000000 1.972285 -12.437594 18.092075 -49.397987 -16.990952 -0.901313 24.128892 -15.390321 -0.000000 0.000000 0.000000 0.000000 0.000000 0.000000 0.000000 0.000000 0.000000 0.000000 0.000000 0.000000 0.000000 -17.752956 -4.246941 -29.937590 134.228322 16.178325 44.871217 160.534938 76.719132 -0.000000 0.000000 0.000000 0.000000 0.000000 0.000000 0.000000 0.000000 0.000000 0.000000 0.000000 0.000000 0.000000 
2.973957 15.699352 -0.698327 30.493837 -28.015653 -38.625878 131.967741 -84.064101 -70.186618 -46.629047 -18.469481 110.223700 17.547507 62.299934 -63.130043 47.865983 -31.004116 177.607664 0.000000 0.000000 0.000000 -5.478698 -3.627106 6.923035 -31.010007 -17.251571 5.368134 41.842762 -29.852972 12.059889 9.250896 -6.659184 -35.009380 0.000000 0.000000 0.000000 5.361936 0.104072 -7.017790 -0.402146 -0.968739 -1.026081 -17.228315 2.765757 -5.069828 1.291426 0.902602 3.002943 0.000000 0.000000 0.000000 0.000000 0.000000 0.000000 1.914817 -12.117472 18.076773 -49.800154 -16.341286 -0.894904 23.740059 -15.278162 -0.000000 0.000000 0.000000 0.000000 0.000000 0.000000 0.000000 0.000000 0.000000 0.000000 0.000000 0.000000 0.000000 -17.659459 -4.092357 -29.651683 133.893567 16.021214 44.670306 159.024363 76.632097 -0.000000 0.000000 0.000000 0.000000 0.000000 0.000000 0.000000 0.000000 0.000000 0.000000 0.000000 0.000000 0.000000 
2.982417 15.681474 -0.701208 30.528700 -28.517726 -38.595859 132.175113 -84.284878 -70.310683 -46.754398 -17.757644 110.082612 18.089992 61.999405 -62.462068 46.648700 -32.360721 176.076840 0.000000 0.000000 0.000000 -5.302589 -3.610886 6.698499 -30.941318 -17.099640 4.893007 41.551773 -30.205082 12.732153 9.322151 -6.565769 -35.157812 0.000000 0.000000 0.000000 5.646624 -0.036025 -7.050928 -0.372296 -0.959773 -1.121024 -17.274773 2.865398 -5.168910 1.246745 0.910706 3.096412 0.000000 0.000000 0.000000 0.000000 0.000000 0.000000 1.853800 -11.783975 18.063717 -50.196785 -15.634113 -0.862734 23.407871 -15.246144 -0.000000 0.000000 0.000000 0.000000 0.000000 0.000000 0.000000 0.000000 0.000000 0.000000 0.000000 0.000000 0.000000 -17.645011 -3.908536 -29.451714 133.536975 15.791683 44.303029 157.495156 76.587495 -0.000000 0.000000 0.000000 0.000000 0.000000 0.000000 0.000000 0.000000 0.000000 0.000000 0.000000 0.000000 0.000000 
2.990877 15.663596 -0.704090 30.559192 -29.019305 -38.532612 132.373849 -84.549782 -70.451486 -46.869883 -16.922374 109.982667 18.738153 61.673019 -61.664034 45.146084 -33.955318 174.213018 0.000000 0.000000 0.000000 -5.124056 -3.593919 6.458225 -30.860372 -16.948951 4.408518 41.255302 -30.555885 13.401575 9.394474 -6.478355 -35.305634 0.000000 0.000000 0.000000 5.930020 -0.160935 -7.111985 -0.343966 -0.946630 -1.214658 -17.314340 2.950386 -5.261772 1.203814 0.918602 3.181668 0.000000 0.000000 0.000000 0.000000 0.000000 0.000000 1.779979 -11.450321 18.054155 -50.572973 -14.933583 -0.832359 23.069871 -15.205755 -0.000000 0.000000 0.000000 0.000000 0.000000 0.000000 0.000000 0.000000 0.000000 0.000000 0.000000 0.000000 0.000000 -17.618259 -3.739940 -29.224515 133.183202 15.577984 43.975334 155.960522 76.543136 -0.000000 0.000000 0.000000 0.000000 0.000000 0.000000 0.000000 0.000000 0.000000 0.000000 0.000000 0.000000 0.000000 
2.999336 15.645718 -0.706971 30.584451 -29.519447 -38.428940 132.559225 -84.874285 -70.612280 -46.956280 -15.929080 109.929168 19.524319 61.318496 -60.700504 43.282945 -35.846459 171.928155 0.000000 0.000000 0.000000 -4.943257 -3.575646 6.198369 -30.766504 -16.800812 3.913558 40.954587 -30.905732 14.067127 9.467982 -6.397107 -35.453098 0.000000 0.000000 0.000000 6.212565 -0.271811 -7.205771 -0.317035 -0.929755 -1.309630 -17.347554 3.021503 -5.348895 1.162446 0.925675 3.258569 0.000000 0.000000 0.000000 0.000000 0.000000 0.000000 1.693319 -11.114582 18.047388 -50.929006 -14.239587 -0.803232 22.726429 -15.157779 -0.000000 0.000000 0.000000 0.000000 0.000000 0.000000 0.000000 0.000000 0.000000 0.000000 0.000000 0.000000 0.000000 -17.579207 -3.586063 -28.970265 132.832324 15.380094 43.686825 154.419980 76.498607 -0.000000 0.000000 0.000000 0.000000 0.000000 0.000000 0.000000 0.000000 0.000000 0.000000 0.000000 0.000000 0.000000 
3.009467 15.623537 -0.720909 30.239996 -29.796821 -38.629217 132.732101 -84.609957 -70.160561 -46.705122 -17.134604 109.595667 18.347283 61.172074 -62.062270 45.868469 -34.865664 174.458055 0.000000 0.000000 0.000000 -4.682960 -3.853004 6.347815 -30.645642 -16.629360 3.437939 40.546248 -31.306076 14.884451 9.564261 -6.284395 -35.627945 0.000000 0.000000 0.000000 6.591705 -0.601267 -6.803124 -0.305376 -1.108801 -1.422856 -17.464519 3.061427 -5.480189 1.103624 0.874910 3.402086 0.000000 0.000000 0.000000 0.000000 0.000000 0.000000 1.602099 -10.734847 18.022730 -51.283818 -13.485607 -0.755317 22.425518 -15.175848 -0.000000 0.000000 0.000000 0.000000 0.000000 0.000000 0.000000 0.000000 0.000000 0.000000 0.000000 0.000000 0.000000 -17.621173 -3.341251 -28.843503 132.471095 15.082363 43.233956 153.034000 76.455022 -0.000000 0.000000 0.000000 0.000000 0.000000 0.000000 0.000000 0.000000 0.000000 0.000000 0.000000 0.000000 0.000000 
3.021699 15.595946 -0.748746 29.471621 -29.838786 -38.964600 132.783366 -84.046941 -69.158795 -45.689406 -19.928614 109.034035 15.435273 61.317275 -65.728639 51.259056 -30.802877 -179.496957 0.000000 0.000000 0.000000 -4.323301 -4.428996 6.816300 -30.466289 -16.464255 2.943421 40.025603 -31.781936 15.869467 9.690003 -6.140308 -35.845752 0.000000 0.000000 0.000000 7.085745 -1.142327 -6.013071 -0.307508 -1.487759 -1.596365 -17.681962 3.045780 -5.638704 1.016193 0.758119 3.609175 0.000000 0.000000 0.000000 0.000000 0.000000 0.000000 1.500997 -10.296975 17.975272 -51.633108 -12.669002 -0.687053 22.175842 -15.279055 -0.000000 0.000000 0.000000 0.000000 0.000000 0.000000 0.000000 0.000000 0.000000 0.000000 0.000000 0.000000 0.000000 -17.747052 -3.026299 -28.811980 132.116914 14.680621 42.627810 151.736472 76.402964 -0.000000 0.000000 0.000000 0.000000 0.000000 0.000000 0.000000 0.000000 0.000000 0.000000 0.000000 0.000000 0.000000 
3.033931 15.568356 -0.776584 28.791541 -29.949364 -39.071524 132.799440 -83.857595 -68.362116 -44.545660 -21.710400 108.579387 12.970046 61.361295 -68.909972 54.206645 -27.645865 -175.747431 0.000000 0.000000 0.000000 -3.972103 -4.908675 7.072588 -30.260475 -16.314429 2.398323 39.508834 -32.264502 16.841693 9.818026 -6.011036 -36.067454 0.000000 0.000000 0.000000 7.559480 -1.589945 -5.472741 -0.306193 -1.801189 -1.783228 -17.883173 3.004627 -5.758106 0.922264 0.646803 3.782277 0.000000 0.000000 0.000000 0.000000 0.000000 0.000000 1.377687 -9.847526 17.925656 -51.950149 -11.877699 -0.625100 21.918943 -15.372082 -0.000000 0.000000 0.000000 0.000000 0.000000 0.000000 0.000000 0.000000 0.000000 0.000000 0.000000 0.000000 0.000000 -17.830282 -2.769221 -28.667958 131.782910 14.340116 42.137788 150.282432 76.336263 -0.000000 0.000000 0.000000 0.000000 0.000000 0.000000 0.000000 0.000000 0.000000 0.000000 0.000000 0.000000 0.000000 
